# This file uses centimeters as units for non-parametric coordinates.

mtllib OutsideCorner_LP.mtl
g default
v -1.000000 0.000000 -4.000000
v -0.500000 0.000000 -3.500000
v 0.000000 0.000000 -3.000000
v -1.000000 1.000000 -4.000000
v -0.500000 1.000000 -3.500000
v 0.000000 0.600000 -3.000000
v 3.000000 1.000000 -4.000000
v 3.000000 1.000000 -3.500000
v 3.000000 0.600000 -3.000000
v 3.000000 0.000000 -4.000000
v 3.000000 0.000000 -3.500000
v 3.000000 0.000000 -3.000000
v -1.000000 0.000000 0.000000
v -0.500000 0.000000 0.000000
v 0.000000 0.000000 0.000000
v -1.000000 1.000000 0.000000
v -0.500000 1.000000 0.000000
v 0.000000 0.600000 0.000000
vt 0.801481 0.485333
vt 0.747620 0.428438
vt 0.747620 0.030177
vt 0.653436 0.371544
vt 0.653436 0.030177
vt 0.051059 0.799486
vt 0.051059 0.924436
vt 0.478318 0.030177
vt 0.532178 0.030177
vt 0.532178 0.428438
vt 0.478318 0.485333
vt 0.151053 0.674544
vt 0.300971 0.674544
vt 0.586039 0.030177
vt 0.300971 0.924436
vt 0.300971 0.799486
vt 0.586039 0.371544
vt 0.731746 0.954858
vt 0.879809 0.500556
vt 0.045640 0.062725
vt 0.170589 0.062725
vt 0.170589 0.312620
vt 0.045640 0.312620
vt 0.295539 0.062725
vt 0.295539 0.212668
vt 0.448899 0.954870
vt 0.825956 0.557340
vt 0.448926 0.500556
vt 0.731754 0.614123
vt 0.556620 0.500556
vt 0.610473 0.557340
vt 0.610521 0.954864
vt 0.556647 0.954870
vt 0.664347 0.614123
vt 0.664368 0.954858
vt 0.879782 0.954870
vt 0.825908 0.954864
vt 0.909202 0.485333
vt 0.801481 0.030177
vt 0.909202 0.030177
vn 0.000000 1.000000 0.000000
vn 0.000000 1.000000 0.000000
vn 0.000000 1.000000 0.000000
vn 0.000000 1.000000 0.000000
vn 0.000000 0.780869 0.624695
vn 0.000000 0.780869 0.624695
vn 0.000000 0.780869 0.624695
vn 0.000000 0.780869 0.624695
vn 1.000000 0.000000 0.000000
vn 1.000000 0.000000 0.000000
vn 1.000000 0.000000 0.000000
vn 1.000000 0.000000 0.000000
vn 1.000000 0.000000 0.000000
vn 1.000000 0.000000 0.000000
vn 1.000000 0.000000 0.000000
vn 1.000000 0.000000 0.000000
vn 0.000000 -1.000000 0.000000
vn 0.000000 -1.000000 0.000000
vn 0.000000 -1.000000 0.000000
vn 0.000000 -1.000000 0.000000
vn 0.000000 -1.000000 0.000000
vn 0.000000 -1.000000 0.000000
vn 0.000000 -1.000000 0.000000
vn 0.000000 -1.000000 0.000000
vn 0.000000 0.000000 1.000000
vn 0.000000 0.000000 1.000000
vn 0.000000 0.000000 1.000000
vn 0.000000 0.000000 1.000000
vn 0.000000 0.000000 -1.000000
vn 0.000000 0.000000 -1.000000
vn 0.000000 0.000000 -1.000000
vn 0.000000 0.000000 -1.000000
vn 0.000000 0.000000 1.000000
vn 0.000000 0.000000 1.000000
vn 0.000000 0.000000 1.000000
vn 0.000000 0.000000 1.000000
vn 0.000000 0.000000 1.000000
vn 0.000000 0.000000 1.000000
vn 0.000000 0.000000 1.000000
vn 0.000000 0.000000 1.000000
vn 0.000000 1.000000 0.000000
vn 0.000000 1.000000 0.000000
vn 0.000000 1.000000 0.000000
vn 0.000000 1.000000 0.000000
vn 0.624695 0.780869 0.000000
vn 0.624695 0.780869 0.000000
vn 0.624695 0.780869 0.000000
vn 0.624695 0.780869 0.000000
vn 0.000000 -1.000000 0.000000
vn 0.000000 -1.000000 0.000000
vn 0.000000 -1.000000 0.000000
vn 0.000000 -1.000000 0.000000
vn 0.000000 -1.000000 0.000000
vn 0.000000 -1.000000 0.000000
vn 0.000000 -1.000000 0.000000
vn 0.000000 -1.000000 0.000000
vn 1.000000 0.000000 0.000000
vn 1.000000 0.000000 0.000000
vn 1.000000 0.000000 0.000000
vn 1.000000 0.000000 0.000000
vn -1.000000 0.000000 0.000000
vn -1.000000 0.000000 0.000000
vn -1.000000 0.000000 0.000000
vn -1.000000 0.000000 0.000000
s off
g OutsideCorner_LP
usemtl initialShadingGroup
f 4/1/1 5/2/2 8/3/3 7/39/4
f 5/2/5 6/4/6 9/5/7 8/3/8
f 7/7/9 8/6/10 11/16/11 10/15/12
f 8/6/13 9/12/14 12/13/15 11/16/16
f 10/8/17 11/9/18 2/10/19 1/11/20
f 11/9/21 12/14/22 3/17/23 2/10/24
f 3/17/25 12/14/26 9/5/27 6/4/28
f 10/40/29 1/38/30 4/1/31 7/39/32
f 13/20/33 14/21/34 17/22/35 16/23/36
f 14/21/37 15/24/38 18/25/39 17/22/40
f 16/36/41 17/37/42 5/27/43 4/19/44
f 17/37/45 18/18/46 6/29/47 5/27/48
f 1/30/49 2/31/50 14/32/51 13/33/52
f 2/31/53 3/34/54 15/35/55 14/32/56
f 15/35/57 3/34/58 6/29/59 18/18/60
f 1/30/61 13/33/62 16/26/63 4/28/64
