# This file uses centimeters as units for non-parametric coordinates.

mtllib PlayerBall_LP.mtl
g default
v 0.250000 0.048943 -0.181636
v 0.095491 0.048943 -0.293893
v -0.095492 0.048943 -0.293893
v -0.250000 0.048943 -0.181636
v -0.309017 0.048943 0.000000
v -0.250000 0.048943 0.181636
v -0.095491 0.048943 0.293893
v 0.095492 0.048943 0.293893
v 0.250000 0.048943 0.181636
v 0.309017 0.048943 0.000000
v 0.475528 0.190983 -0.345492
v 0.181636 0.190983 -0.559017
v -0.181636 0.190983 -0.559017
v -0.475528 0.190983 -0.345491
v -0.587785 0.190983 0.000000
v -0.475528 0.190983 0.345492
v -0.181636 0.190983 0.559017
v 0.181636 0.190983 0.559017
v 0.475528 0.190983 0.345491
v 0.587785 0.190983 0.000000
v 0.654509 0.412215 -0.475528
v 0.250000 0.412215 -0.769421
v -0.250000 0.412215 -0.769421
v -0.654509 0.412215 -0.475528
v -0.809017 0.412215 0.000000
v -0.654509 0.412215 0.475528
v -0.250000 0.412215 0.769421
v 0.250000 0.412215 0.769421
v 0.654509 0.412215 0.475528
v 0.809017 0.412215 0.000000
v 0.769421 0.690983 -0.559017
v 0.293893 0.690983 -0.904509
v -0.293893 0.690983 -0.904509
v -0.769421 0.690983 -0.559017
v -0.951057 0.690983 0.000000
v -0.769421 0.690983 0.559017
v -0.293893 0.690983 0.904509
v 0.293893 0.690983 0.904509
v 0.769421 0.690983 0.559017
v 0.951057 0.690983 0.000000
v 0.809017 1.000000 -0.587785
v 0.309017 1.000000 -0.951057
v -0.309017 1.000000 -0.951057
v -0.809017 1.000000 -0.587785
v -1.000000 1.000000 0.000000
v -0.809017 1.000000 0.587785
v -0.309017 1.000000 0.951057
v 0.309017 1.000000 0.951057
v 0.809017 1.000000 0.587785
v 1.000000 1.000000 0.000000
v 0.769421 1.309017 -0.559017
v 0.293893 1.309017 -0.904509
v -0.293893 1.309017 -0.904509
v -0.769421 1.309017 -0.559017
v -0.951057 1.309017 0.000000
v -0.769421 1.309017 0.559017
v -0.293893 1.309017 0.904509
v 0.293893 1.309017 0.904509
v 0.769421 1.309017 0.559017
v 0.951057 1.309017 0.000000
v 0.654509 1.587785 -0.475528
v 0.250000 1.587785 -0.769421
v -0.250000 1.587785 -0.769421
v -0.654509 1.587785 -0.475528
v -0.809017 1.587785 0.000000
v -0.654509 1.587785 0.475528
v -0.250000 1.587785 0.769421
v 0.250000 1.587785 0.769421
v 0.654509 1.587785 0.475528
v 0.809017 1.587785 0.000000
v 0.475528 1.809017 -0.345492
v 0.181636 1.809017 -0.559017
v -0.181636 1.809017 -0.559017
v -0.475528 1.809017 -0.345491
v -0.587785 1.809017 0.000000
v -0.475528 1.809017 0.345492
v -0.181636 1.809017 0.559017
v 0.181636 1.809017 0.559017
v 0.475528 1.809017 0.345491
v 0.587785 1.809017 0.000000
v 0.250000 1.951056 -0.181636
v 0.095491 1.951056 -0.293893
v -0.095492 1.951056 -0.293893
v -0.250000 1.951056 -0.181636
v -0.309017 1.951056 0.000000
v -0.250000 1.951056 0.181636
v -0.095491 1.951056 0.293893
v 0.095492 1.951056 0.293893
v 0.250000 1.951056 0.181636
v 0.309017 1.951056 0.000000
v 0.000000 0.000000 0.000000
v 0.000000 2.000000 0.000000
vt 0.467626 0.607295
vt 0.136527 0.036499
vt 0.832452 0.083174
vt 0.379562 0.562171
vt 0.192988 0.078965
vt 0.336279 0.585646
vt 0.264619 0.097453
vt 0.314705 0.629908
vt 0.341804 0.103430
vt 0.322880 0.678464
vt 0.421539 0.103685
vt 0.357757 0.713221
vt 0.502930 0.101874
vt 0.406341 0.721229
vt 0.585568 0.099781
vt 0.450528 0.699503
vt 0.668934 0.097732
vt 0.473854 0.656139
vt 0.752008 0.094061
vt 0.070973 0.093350
vt 0.865651 0.148637
vt 0.152833 0.138454
vt 0.240048 0.157078
vt 0.327471 0.162957
vt 0.414391 0.163046
vt 0.501376 0.160991
vt 0.589261 0.158733
vt 0.678850 0.157021
vt 0.770834 0.155030
vt 0.023424 0.168143
vt 0.883421 0.217702
vt 0.126198 0.203871
vt 0.224356 0.218549
vt 0.318548 0.223081
vt 0.410070 0.222744
vt 0.500482 0.220468
vt 0.591364 0.218088
vt 0.684296 0.216790
vt 0.780951 0.217013
vt 0.000000 0.255192
vt 0.886025 0.288028
vt 0.113988 0.273002
vt 0.217441 0.281165
vt 0.314760 0.283634
vt 0.408295 0.282778
vt 0.499999 0.280376
vt 0.591705 0.277991
vt 0.685245 0.277187
vt 0.782570 0.279744
vt 0.004274 0.347045
vt 0.873765 0.357130
vt 0.116657 0.343344
vt 0.219108 0.343906
vt 0.315743 0.344039
vt 0.408655 0.342685
vt 0.499521 0.340285
vt 0.589921 0.338022
vt 0.681435 0.337733
vt 0.775621 0.342344
vt 0.037317 0.435100
vt 0.847097 0.422507
vt 0.134506 0.412406
vt 0.229285 0.405892
vt 0.321235 0.403813
vt 0.410790 0.402046
vt 0.498645 0.399765
vt 0.585604 0.397720
vt 0.672502 0.397849
vt 0.759906 0.403796
vt 0.096928 0.509905
vt 0.806925 0.481954
vt 0.167793 0.477843
vt 0.248183 0.466853
vt 0.331211 0.463104
vt 0.414530 0.461004
vt 0.497124 0.458888
vt 0.578473 0.457083
vt 0.658172 0.457370
vt 0.735325 0.463401
vt 0.657707 0.637339
vt 0.635544 0.586631
vt 0.645608 0.685069
vt 0.608018 0.716874
vt 0.558944 0.720902
vt 0.516671 0.695652
vt 0.496952 0.650534
vt 0.507133 0.602359
vt 0.543422 0.569078
vt 0.592296 0.563091
vt 0.394542 0.641433
vt 0.577197 0.642330
vt 0.434166 0.571171
vt 0.704125 0.521659
vt 0.757337 0.534452
vt 0.640002 0.517372
vt 0.569551 0.517385
vt 0.495458 0.519093
vt 0.419855 0.521219
vt 0.345134 0.523730
vt 0.274695 0.528167
vt 0.214028 0.538348
vt 0.172762 0.561027
vt 0.725591 0.032723
vt 0.786312 0.022612
vt 0.655097 0.037099
vt 0.580317 0.039569
vt 0.504653 0.041677
vt 0.430500 0.043390
vt 0.359994 0.043428
vt 0.295824 0.039182
vt 0.242573 0.026432
vt 0.827638 0.000000
vt 0.790655 0.560906
vt 0.657051 0.630925
vt 0.209226 0.000005
vt 0.428427 0.568231
vt 0.863349 0.524474
vt 0.928915 0.467700
vt 0.976506 0.392982
vt 1.000000 0.305993
vt 0.995821 0.214173
vt 0.962897 0.126104
vt 0.903395 0.051232
vn 0.277578 -0.881468 -0.382053
vn 0.277578 -0.881468 -0.382053
vn 0.277578 -0.881468 -0.382053
vn 0.277578 -0.881468 -0.382053
vn -0.000000 -0.881468 -0.472244
vn -0.000000 -0.881468 -0.472244
vn -0.000000 -0.881468 -0.472244
vn -0.000000 -0.881468 -0.472244
vn -0.277578 -0.881468 -0.382053
vn -0.277578 -0.881468 -0.382053
vn -0.277578 -0.881468 -0.382053
vn -0.277578 -0.881468 -0.382053
vn -0.449130 -0.881468 -0.145931
vn -0.449130 -0.881468 -0.145931
vn -0.449130 -0.881468 -0.145931
vn -0.449130 -0.881468 -0.145931
vn -0.449130 -0.881468 0.145931
vn -0.449130 -0.881468 0.145931
vn -0.449130 -0.881468 0.145931
vn -0.449130 -0.881468 0.145931
vn -0.277578 -0.881468 0.382053
vn -0.277578 -0.881468 0.382053
vn -0.277578 -0.881468 0.382053
vn -0.277578 -0.881468 0.382053
vn 0.000000 -0.881468 0.472244
vn 0.000000 -0.881468 0.472244
vn 0.000000 -0.881468 0.472244
vn 0.000000 -0.881468 0.472244
vn 0.277578 -0.881468 0.382053
vn 0.277578 -0.881468 0.382053
vn 0.277578 -0.881468 0.382053
vn 0.277578 -0.881468 0.382053
vn 0.449130 -0.881468 0.145931
vn 0.449130 -0.881468 0.145931
vn 0.449131 -0.881468 0.145931
vn 0.449131 -0.881468 0.145931
vn 0.449131 -0.881468 -0.145931
vn 0.449131 -0.881468 -0.145931
vn 0.449131 -0.881468 -0.145931
vn 0.449131 -0.881468 -0.145931
vn 0.425919 -0.689152 -0.586227
vn 0.425919 -0.689152 -0.586227
vn 0.425919 -0.689152 -0.586227
vn 0.425919 -0.689152 -0.586227
vn -0.000000 -0.689152 -0.724617
vn -0.000000 -0.689152 -0.724617
vn -0.000000 -0.689152 -0.724617
vn -0.000000 -0.689152 -0.724617
vn -0.425919 -0.689152 -0.586228
vn -0.425919 -0.689152 -0.586228
vn -0.425919 -0.689152 -0.586228
vn -0.425919 -0.689152 -0.586228
vn -0.689152 -0.689152 -0.223919
vn -0.689152 -0.689152 -0.223919
vn -0.689152 -0.689152 -0.223919
vn -0.689152 -0.689152 -0.223919
vn -0.689152 -0.689152 0.223919
vn -0.689152 -0.689152 0.223919
vn -0.689152 -0.689152 0.223919
vn -0.689152 -0.689152 0.223919
vn -0.425919 -0.689152 0.586228
vn -0.425919 -0.689152 0.586228
vn -0.425919 -0.689152 0.586228
vn -0.425919 -0.689152 0.586228
vn 0.000000 -0.689152 0.724617
vn 0.000000 -0.689152 0.724617
vn 0.000000 -0.689152 0.724617
vn 0.000000 -0.689152 0.724617
vn 0.425919 -0.689152 0.586227
vn 0.425919 -0.689152 0.586227
vn 0.425919 -0.689152 0.586227
vn 0.425919 -0.689152 0.586227
vn 0.689152 -0.689152 0.223919
vn 0.689152 -0.689152 0.223919
vn 0.689152 -0.689152 0.223919
vn 0.689152 -0.689152 0.223919
vn 0.689152 -0.689152 -0.223919
vn 0.689152 -0.689152 -0.223919
vn 0.689152 -0.689152 -0.223919
vn 0.689152 -0.689152 -0.223919
vn 0.528952 -0.436083 -0.728040
vn 0.528952 -0.436083 -0.728040
vn 0.528952 -0.436083 -0.728040
vn 0.528952 -0.436083 -0.728040
vn -0.000000 -0.436083 -0.899906
vn -0.000000 -0.436083 -0.899906
vn -0.000000 -0.436083 -0.899906
vn -0.000000 -0.436083 -0.899906
vn -0.528952 -0.436083 -0.728040
vn -0.528952 -0.436083 -0.728040
vn -0.528952 -0.436083 -0.728039
vn -0.528952 -0.436083 -0.728040
vn -0.855862 -0.436083 -0.278086
vn -0.855862 -0.436083 -0.278086
vn -0.855862 -0.436083 -0.278086
vn -0.855862 -0.436083 -0.278086
vn -0.855862 -0.436083 0.278086
vn -0.855862 -0.436083 0.278086
vn -0.855862 -0.436083 0.278086
vn -0.855862 -0.436083 0.278086
vn -0.528952 -0.436083 0.728039
vn -0.528952 -0.436083 0.728040
vn -0.528952 -0.436083 0.728039
vn -0.528952 -0.436083 0.728039
vn 0.000000 -0.436083 0.899906
vn 0.000000 -0.436083 0.899906
vn 0.000000 -0.436083 0.899906
vn 0.000000 -0.436083 0.899906
vn 0.528952 -0.436083 0.728040
vn 0.528952 -0.436083 0.728040
vn 0.528952 -0.436083 0.728040
vn 0.528952 -0.436083 0.728040
vn 0.855862 -0.436083 0.278086
vn 0.855862 -0.436083 0.278086
vn 0.855862 -0.436083 0.278086
vn 0.855862 -0.436083 0.278086
vn 0.855862 -0.436084 -0.278086
vn 0.855862 -0.436084 -0.278086
vn 0.855862 -0.436084 -0.278086
vn 0.855862 -0.436084 -0.278086
vn 0.581228 -0.148952 -0.799992
vn 0.581228 -0.148952 -0.799992
vn 0.581228 -0.148952 -0.799992
vn 0.581228 -0.148952 -0.799992
vn -0.000000 -0.148952 -0.988844
vn -0.000000 -0.148952 -0.988844
vn -0.000000 -0.148952 -0.988844
vn -0.000000 -0.148952 -0.988844
vn -0.581228 -0.148952 -0.799992
vn -0.581228 -0.148952 -0.799992
vn -0.581228 -0.148952 -0.799992
vn -0.581228 -0.148952 -0.799992
vn -0.940447 -0.148952 -0.305570
vn -0.940447 -0.148952 -0.305570
vn -0.940447 -0.148952 -0.305570
vn -0.940447 -0.148952 -0.305570
vn -0.940447 -0.148952 0.305570
vn -0.940447 -0.148952 0.305570
vn -0.940447 -0.148952 0.305570
vn -0.940447 -0.148952 0.305570
vn -0.581228 -0.148952 0.799992
vn -0.581228 -0.148952 0.799992
vn -0.581228 -0.148952 0.799992
vn -0.581228 -0.148952 0.799992
vn 0.000000 -0.148952 0.988844
vn 0.000000 -0.148952 0.988844
vn 0.000000 -0.148952 0.988844
vn 0.000000 -0.148952 0.988844
vn 0.581228 -0.148952 0.799992
vn 0.581228 -0.148952 0.799992
vn 0.581228 -0.148952 0.799992
vn 0.581228 -0.148952 0.799992
vn 0.940447 -0.148952 0.305570
vn 0.940447 -0.148952 0.305570
vn 0.940447 -0.148952 0.305570
vn 0.940447 -0.148952 0.305570
vn 0.940447 -0.148952 -0.305570
vn 0.940447 -0.148952 -0.305570
vn 0.940447 -0.148952 -0.305570
vn 0.940447 -0.148952 -0.305570
vn 0.581228 0.148952 -0.799992
vn 0.581228 0.148952 -0.799992
vn 0.581228 0.148952 -0.799992
vn 0.581228 0.148952 -0.799992
vn -0.000000 0.148952 -0.988844
vn -0.000000 0.148952 -0.988844
vn -0.000000 0.148952 -0.988844
vn -0.000000 0.148952 -0.988844
vn -0.581228 0.148952 -0.799992
vn -0.581228 0.148952 -0.799992
vn -0.581228 0.148952 -0.799992
vn -0.581228 0.148952 -0.799992
vn -0.940447 0.148952 -0.305570
vn -0.940447 0.148952 -0.305570
vn -0.940447 0.148952 -0.305570
vn -0.940447 0.148952 -0.305570
vn -0.940447 0.148952 0.305570
vn -0.940447 0.148952 0.305570
vn -0.940447 0.148952 0.305570
vn -0.940447 0.148952 0.305570
vn -0.581228 0.148952 0.799992
vn -0.581228 0.148952 0.799992
vn -0.581228 0.148952 0.799992
vn -0.581228 0.148952 0.799992
vn 0.000000 0.148952 0.988844
vn 0.000000 0.148952 0.988844
vn 0.000000 0.148952 0.988844
vn 0.000000 0.148952 0.988844
vn 0.581228 0.148952 0.799992
vn 0.581228 0.148952 0.799992
vn 0.581228 0.148952 0.799992
vn 0.581228 0.148952 0.799992
vn 0.940447 0.148952 0.305570
vn 0.940447 0.148952 0.305570
vn 0.940447 0.148952 0.305570
vn 0.940447 0.148952 0.305570
vn 0.940447 0.148952 -0.305570
vn 0.940447 0.148952 -0.305570
vn 0.940447 0.148952 -0.305570
vn 0.940447 0.148952 -0.305570
vn 0.528952 0.436083 -0.728040
vn 0.528952 0.436083 -0.728040
vn 0.528952 0.436083 -0.728040
vn 0.528952 0.436083 -0.728040
vn -0.000000 0.436083 -0.899906
vn -0.000000 0.436083 -0.899906
vn -0.000000 0.436083 -0.899906
vn -0.000000 0.436083 -0.899906
vn -0.528952 0.436083 -0.728040
vn -0.528952 0.436083 -0.728040
vn -0.528952 0.436083 -0.728040
vn -0.528952 0.436083 -0.728040
vn -0.855862 0.436083 -0.278086
vn -0.855862 0.436083 -0.278086
vn -0.855862 0.436083 -0.278086
vn -0.855862 0.436083 -0.278086
vn -0.855862 0.436083 0.278086
vn -0.855862 0.436083 0.278086
vn -0.855862 0.436083 0.278086
vn -0.855862 0.436083 0.278086
vn -0.528952 0.436083 0.728040
vn -0.528952 0.436083 0.728040
vn -0.528952 0.436083 0.728040
vn -0.528952 0.436083 0.728040
vn 0.000000 0.436083 0.899906
vn 0.000000 0.436083 0.899906
vn 0.000000 0.436083 0.899906
vn 0.000000 0.436083 0.899906
vn 0.528952 0.436083 0.728040
vn 0.528952 0.436083 0.728040
vn 0.528952 0.436083 0.728040
vn 0.528952 0.436083 0.728040
vn 0.855862 0.436083 0.278086
vn 0.855862 0.436083 0.278086
vn 0.855862 0.436083 0.278086
vn 0.855862 0.436083 0.278086
vn 0.855862 0.436084 -0.278086
vn 0.855862 0.436084 -0.278086
vn 0.855862 0.436084 -0.278086
vn 0.855862 0.436084 -0.278086
vn 0.425919 0.689152 -0.586227
vn 0.425919 0.689152 -0.586227
vn 0.425919 0.689152 -0.586227
vn 0.425919 0.689152 -0.586227
vn -0.000000 0.689152 -0.724617
vn -0.000000 0.689152 -0.724617
vn -0.000000 0.689152 -0.724617
vn -0.000000 0.689152 -0.724617
vn -0.425919 0.689152 -0.586227
vn -0.425919 0.689152 -0.586227
vn -0.425919 0.689152 -0.586227
vn -0.425919 0.689152 -0.586227
vn -0.689152 0.689152 -0.223919
vn -0.689152 0.689152 -0.223919
vn -0.689152 0.689152 -0.223919
vn -0.689152 0.689152 -0.223919
vn -0.689152 0.689152 0.223919
vn -0.689152 0.689152 0.223919
vn -0.689152 0.689152 0.223919
vn -0.689152 0.689152 0.223919
vn -0.425919 0.689152 0.586228
vn -0.425919 0.689152 0.586228
vn -0.425919 0.689152 0.586228
vn -0.425919 0.689152 0.586228
vn 0.000000 0.689152 0.724617
vn 0.000000 0.689152 0.724617
vn 0.000000 0.689152 0.724617
vn 0.000000 0.689152 0.724617
vn 0.425919 0.689152 0.586227
vn 0.425919 0.689152 0.586227
vn 0.425919 0.689152 0.586227
vn 0.425919 0.689152 0.586227
vn 0.689152 0.689152 0.223919
vn 0.689152 0.689152 0.223919
vn 0.689152 0.689152 0.223919
vn 0.689152 0.689152 0.223919
vn 0.689152 0.689152 -0.223919
vn 0.689152 0.689152 -0.223919
vn 0.689152 0.689152 -0.223919
vn 0.689152 0.689152 -0.223919
vn 0.277578 0.881468 -0.382053
vn 0.277578 0.881468 -0.382053
vn 0.277578 0.881468 -0.382053
vn 0.277578 0.881468 -0.382053
vn -0.000000 0.881468 -0.472244
vn -0.000000 0.881468 -0.472244
vn -0.000000 0.881468 -0.472244
vn -0.000000 0.881468 -0.472244
vn -0.277578 0.881468 -0.382053
vn -0.277578 0.881468 -0.382053
vn -0.277578 0.881468 -0.382053
vn -0.277578 0.881468 -0.382053
vn -0.449130 0.881468 -0.145931
vn -0.449130 0.881468 -0.145931
vn -0.449130 0.881468 -0.145931
vn -0.449130 0.881468 -0.145931
vn -0.449131 0.881468 0.145931
vn -0.449131 0.881468 0.145931
vn -0.449130 0.881468 0.145931
vn -0.449130 0.881468 0.145931
vn -0.277578 0.881468 0.382053
vn -0.277578 0.881468 0.382053
vn -0.277578 0.881468 0.382053
vn -0.277578 0.881468 0.382053
vn 0.000000 0.881468 0.472244
vn 0.000000 0.881468 0.472244
vn 0.000000 0.881468 0.472244
vn 0.000000 0.881468 0.472244
vn 0.277578 0.881468 0.382053
vn 0.277578 0.881468 0.382053
vn 0.277578 0.881468 0.382053
vn 0.277578 0.881468 0.382053
vn 0.449131 0.881468 0.145931
vn 0.449131 0.881468 0.145931
vn 0.449131 0.881468 0.145931
vn 0.449130 0.881468 0.145931
vn 0.449130 0.881468 -0.145931
vn 0.449131 0.881468 -0.145931
vn 0.449131 0.881468 -0.145931
vn 0.449130 0.881468 -0.145931
vn 0.096557 -0.986415 -0.132899
vn 0.096557 -0.986415 -0.132899
vn 0.096557 -0.986415 -0.132899
vn -0.000000 -0.986415 -0.164272
vn -0.000000 -0.986415 -0.164272
vn -0.000000 -0.986415 -0.164272
vn -0.096557 -0.986415 -0.132899
vn -0.096557 -0.986415 -0.132899
vn -0.096557 -0.986415 -0.132899
vn -0.156233 -0.986415 -0.050763
vn -0.156233 -0.986415 -0.050763
vn -0.156233 -0.986415 -0.050763
vn -0.156233 -0.986415 0.050763
vn -0.156233 -0.986415 0.050763
vn -0.156233 -0.986415 0.050763
vn -0.096557 -0.986415 0.132899
vn -0.096557 -0.986415 0.132899
vn -0.096557 -0.986415 0.132899
vn 0.000000 -0.986415 0.164272
vn 0.000000 -0.986415 0.164272
vn 0.000000 -0.986415 0.164272
vn 0.096557 -0.986415 0.132899
vn 0.096557 -0.986415 0.132899
vn 0.096557 -0.986415 0.132899
vn 0.156233 -0.986415 0.050763
vn 0.156233 -0.986415 0.050763
vn 0.156233 -0.986415 0.050763
vn 0.156233 -0.986415 -0.050763
vn 0.156233 -0.986415 -0.050763
vn 0.156233 -0.986415 -0.050763
vn 0.096557 0.986415 -0.132900
vn 0.096557 0.986415 -0.132900
vn 0.096557 0.986415 -0.132900
vn -0.000000 0.986415 -0.164273
vn -0.000000 0.986415 -0.164273
vn -0.000000 0.986415 -0.164273
vn -0.096557 0.986415 -0.132900
vn -0.096557 0.986415 -0.132900
vn -0.096557 0.986415 -0.132900
vn -0.156233 0.986415 -0.050763
vn -0.156233 0.986415 -0.050763
vn -0.156233 0.986415 -0.050763
vn -0.156233 0.986415 0.050763
vn -0.156233 0.986415 0.050763
vn -0.156233 0.986415 0.050763
vn -0.096557 0.986415 0.132900
vn -0.096557 0.986415 0.132900
vn -0.096557 0.986415 0.132900
vn 0.000000 0.986415 0.164273
vn 0.000000 0.986415 0.164273
vn 0.000000 0.986415 0.164273
vn 0.096557 0.986415 0.132900
vn 0.096557 0.986415 0.132900
vn 0.096557 0.986415 0.132900
vn 0.156233 0.986415 0.050763
vn 0.156233 0.986415 0.050763
vn 0.156233 0.986415 0.050763
vn 0.156233 0.986415 -0.050763
vn 0.156233 0.986415 -0.050763
vn 0.156233 0.986415 -0.050763
s off
g PlayerBall_LP
usemtl initialShadingGroup
f 1/104/1 2/112/2 12/123/3 11/3/4
f 2/115/5 3/111/6 13/5/7 12/2/8
f 3/111/9 4/110/10 14/7/11 13/5/12
f 4/110/13 5/109/14 15/9/15 14/7/16
f 5/109/17 6/108/18 16/11/19 15/9/20
f 6/108/21 7/107/22 17/13/23 16/11/24
f 7/107/25 8/106/26 18/15/27 17/13/28
f 8/106/29 9/105/30 19/17/31 18/15/32
f 9/105/33 10/103/34 20/19/35 19/17/36
f 10/103/37 1/104/38 11/3/39 20/19/40
f 11/3/41 12/123/42 22/122/43 21/21/44
f 12/2/45 13/5/46 23/22/47 22/20/48
f 13/5/49 14/7/50 24/23/51 23/22/52
f 14/7/53 15/9/54 25/24/55 24/23/56
f 15/9/57 16/11/58 26/25/59 25/24/60
f 16/11/61 17/13/62 27/26/63 26/25/64
f 17/13/65 18/15/66 28/27/67 27/26/68
f 18/15/69 19/17/70 29/28/71 28/27/72
f 19/17/73 20/19/74 30/29/75 29/28/76
f 20/19/77 11/3/78 21/21/79 30/29/80
f 21/21/81 22/122/82 32/121/83 31/31/84
f 22/20/85 23/22/86 33/32/87 32/30/88
f 23/22/89 24/23/90 34/33/91 33/32/92
f 24/23/93 25/24/94 35/34/95 34/33/96
f 25/24/97 26/25/98 36/35/99 35/34/100
f 26/25/101 27/26/102 37/36/103 36/35/104
f 27/26/105 28/27/106 38/37/107 37/36/108
f 28/27/109 29/28/110 39/38/111 38/37/112
f 29/28/113 30/29/114 40/39/115 39/38/116
f 30/29/117 21/21/118 31/31/119 40/39/120
f 31/31/121 32/121/122 42/120/123 41/41/124
f 32/30/125 33/32/126 43/42/127 42/40/128
f 33/32/129 34/33/130 44/43/131 43/42/132
f 34/33/133 35/34/134 45/44/135 44/43/136
f 35/34/137 36/35/138 46/45/139 45/44/140
f 36/35/141 37/36/142 47/46/143 46/45/144
f 37/36/145 38/37/146 48/47/147 47/46/148
f 38/37/149 39/38/150 49/48/151 48/47/152
f 39/38/153 40/39/154 50/49/155 49/48/156
f 40/39/157 31/31/158 41/41/159 50/49/160
f 41/41/161 42/120/162 52/119/163 51/51/164
f 42/40/165 43/42/166 53/52/167 52/50/168
f 43/42/169 44/43/170 54/53/171 53/52/172
f 44/43/173 45/44/174 55/54/175 54/53/176
f 45/44/177 46/45/178 56/55/179 55/54/180
f 46/45/181 47/46/182 57/56/183 56/55/184
f 47/46/185 48/47/186 58/57/187 57/56/188
f 48/47/189 49/48/190 59/58/191 58/57/192
f 49/48/193 50/49/194 60/59/195 59/58/196
f 50/49/197 41/41/198 51/51/199 60/59/200
f 51/51/201 52/119/202 62/118/203 61/61/204
f 52/50/205 53/52/206 63/62/207 62/60/208
f 53/52/209 54/53/210 64/63/211 63/62/212
f 54/53/213 55/54/214 65/64/215 64/63/216
f 55/54/217 56/55/218 66/65/219 65/64/220
f 56/55/221 57/56/222 67/66/223 66/65/224
f 57/56/225 58/57/226 68/67/227 67/66/228
f 58/57/229 59/58/230 69/68/231 68/67/232
f 59/58/233 60/59/234 70/69/235 69/68/236
f 60/59/237 51/51/238 61/61/239 70/69/240
f 61/61/241 62/118/242 72/117/243 71/71/244
f 62/60/245 63/62/246 73/72/247 72/70/248
f 63/62/249 64/63/250 74/73/251 73/72/252
f 64/63/253 65/64/254 75/74/255 74/73/256
f 65/64/257 66/65/258 76/75/259 75/74/260
f 66/65/261 67/66/262 77/76/263 76/75/264
f 67/66/265 68/67/266 78/77/267 77/76/268
f 68/67/269 69/68/270 79/78/271 78/77/272
f 69/68/273 70/69/274 80/79/275 79/78/276
f 70/69/277 61/61/278 71/71/279 80/79/280
f 71/71/281 72/117/282 82/113/283 81/94/284
f 72/70/285 73/72/286 83/101/287 82/102/288
f 73/72/289 74/73/290 84/100/291 83/101/292
f 74/73/293 75/74/294 85/99/295 84/100/296
f 75/74/297 76/75/298 86/98/299 85/99/300
f 76/75/301 77/76/302 87/97/303 86/98/304
f 77/76/305 78/77/306 88/96/307 87/97/308
f 78/77/309 79/78/310 89/95/311 88/96/312
f 79/78/313 80/79/314 90/93/315 89/95/316
f 80/79/317 71/71/318 81/94/319 90/93/320
f 2/92/321 1/1/322 91/90/323
f 3/4/324 2/116/325 91/90/326
f 4/6/327 3/4/328 91/90/329
f 5/8/330 4/6/331 91/90/332
f 6/10/333 5/8/334 91/90/335
f 7/12/336 6/10/337 91/90/338
f 8/14/339 7/12/340 91/90/341
f 9/16/342 8/14/343 91/90/344
f 10/18/345 9/16/346 91/90/347
f 1/1/348 10/18/349 91/90/350
f 81/81/351 82/114/352 92/91/353
f 82/80/354 83/82/355 92/91/356
f 83/82/357 84/83/358 92/91/359
f 84/83/360 85/84/361 92/91/362
f 85/84/363 86/85/364 92/91/365
f 86/85/366 87/86/367 92/91/368
f 87/86/369 88/87/370 92/91/371
f 88/87/372 89/88/373 92/91/374
f 89/88/375 90/89/376 92/91/377
f 90/89/378 81/81/379 92/91/380
