# This file uses centimeters as units for non-parametric coordinates.

mtllib Rail_LP.mtl
g default
v -0.068780 0.068780 0.000000
v -0.234830 0.000000 0.000000
v -0.400881 0.068780 0.000000
v -0.469661 0.234831 0.000000
v -0.400881 0.400881 0.000000
v -0.234830 0.469661 0.000000
v -0.068780 0.400881 0.000000
v 0.000000 0.234831 0.000000
v -0.068780 0.068780 -2.500000
v -0.234830 0.000000 -2.500000
v -0.400881 0.068780 -2.500000
v -0.469661 0.234831 -2.500000
v -0.400881 0.400881 -2.500000
v -0.234830 0.469661 -2.500000
v -0.068780 0.400881 -2.500000
v 0.000000 0.234831 -2.500000
v -0.234830 0.234831 0.000000
v -0.234830 0.234831 -2.500000
v -0.068780 0.068780 -1.250000
v 0.000000 0.234831 -1.250000
v -0.068780 0.400881 -1.250000
v -0.234830 0.469661 -1.250000
v -0.400881 0.400881 -1.250000
v -0.469661 0.234831 -1.250000
v -0.400881 0.068780 -1.250000
v -1.408780 0.068780 0.000000
v -1.574831 0.000000 0.000000
v -1.740881 0.068780 0.000000
v -1.809661 0.234831 0.000000
v -1.740881 0.400881 0.000000
v -1.574831 0.469661 0.000000
v -1.408780 0.400881 0.000000
v -1.340000 0.234831 0.000000
v -1.408780 0.068780 -2.500000
v -1.574831 0.000000 -2.500000
v -1.740881 0.068780 -2.500000
v -1.809661 0.234831 -2.500000
v -1.740881 0.400881 -2.500000
v -1.574831 0.469661 -2.500000
v -1.408780 0.400881 -2.500000
v -1.340000 0.234831 -2.500000
v -1.574831 0.234831 0.000000
v -1.574831 0.234831 -2.500000
v -1.408780 0.068780 -1.250000
v -1.340000 0.234831 -1.250000
v -1.408780 0.400881 -1.250000
v -1.574831 0.469661 -1.250000
v -1.740881 0.400881 -1.250000
v -1.809661 0.234831 -1.250000
v -1.740881 0.068780 -1.250000
v -0.234830 0.000000 -1.250000
v -1.574831 0.000000 -1.250000
vt 0.601670 0.028856
vt 0.654666 0.028856
vt 0.654666 0.427797
vt 0.601670 0.427797
vt 0.707661 0.028856
vt 0.707661 0.427797
vt 0.654666 0.826737
vt 0.601670 0.826737
vt 0.707661 0.826737
vt 0.487954 0.826737
vt 0.434959 0.826737
vt 0.434959 0.427797
vt 0.487954 0.427797
vt 0.381963 0.826737
vt 0.381963 0.427797
vt 0.434959 0.028856
vt 0.487954 0.028856
vt 0.381963 0.028856
vt 0.711524 0.028856
vt 0.764519 0.028856
vt 0.764519 0.427797
vt 0.711524 0.427797
vt 0.817514 0.028856
vt 0.817514 0.427797
vt 0.764519 0.826737
vt 0.711524 0.826737
vt 0.817514 0.826737
vt 0.158651 0.826739
vt 0.105527 0.825025
vt 0.105532 0.427742
vt 0.158651 0.427797
vt 0.052403 0.824461
vt 0.052410 0.427720
vt 0.105656 0.028856
vt 0.158651 0.028856
vt 0.052660 0.028856
vt 0.162256 0.028856
vt 0.215252 0.028856
vt 0.215252 0.427797
vt 0.162256 0.427797
vt 0.268247 0.028856
vt 0.268247 0.427797
vt 0.215252 0.826737
vt 0.162256 0.826737
vt 0.268247 0.826737
vt 0.272110 0.028856
vt 0.325105 0.028856
vt 0.325105 0.427797
vt 0.272110 0.427797
vt 0.378101 0.028856
vt 0.378101 0.427797
vt 0.325105 0.826738
vt 0.272110 0.826738
vt 0.378101 0.826738
vt 0.597808 0.427797
vt 0.544812 0.427797
vt 0.544812 0.028856
vt 0.597808 0.028856
vt 0.597808 0.826737
vt 0.544812 0.826737
vt 0.491817 0.427797
vt 0.491817 0.028856
vt 0.491817 0.826737
vt 0.927368 0.826737
vt 0.874373 0.826737
vt 0.874373 0.427796
vt 0.927368 0.427796
vt 0.821377 0.826737
vt 0.821377 0.427796
vt 0.874373 0.028856
vt 0.927368 0.028856
vt 0.821377 0.028856
vt 0.448912 0.871201
vt 0.448912 0.926336
vt 0.382358 0.898768
vt 0.409925 0.965323
vt 0.409925 0.832214
vt 0.354790 0.965323
vt 0.354790 0.832214
vt 0.315803 0.926336
vt 0.315803 0.871201
vt 0.668619 0.926336
vt 0.629632 0.965322
vt 0.602064 0.898768
vt 0.574497 0.965323
vt 0.668619 0.871201
vt 0.535510 0.926336
vt 0.629632 0.832214
vt 0.535510 0.871201
vt 0.574497 0.832214
vt 0.057887 0.870241
vt 0.096873 0.831255
vt 0.124441 0.897809
vt 0.152009 0.831255
vt 0.057887 0.925377
vt 0.190995 0.870241
vt 0.096873 0.964363
vt 0.190995 0.925377
vt 0.152008 0.964363
vt 0.888326 0.871200
vt 0.888326 0.926336
vt 0.821771 0.898768
vt 0.849339 0.965322
vt 0.849339 0.832214
vt 0.794204 0.965322
vt 0.794204 0.832214
vt 0.755217 0.926336
vt 0.755217 0.871200
vn -0.923880 -0.382683 0.000000
vn -0.923880 -0.382683 0.000000
vn -0.923880 -0.382683 0.000000
vn -0.923880 -0.382683 0.000000
vn -0.923879 0.382684 0.000000
vn -0.923879 0.382684 0.000000
vn -0.923879 0.382684 0.000000
vn -0.923879 0.382684 0.000000
vn -0.382684 0.923879 0.000000
vn -0.382684 0.923879 0.000000
vn -0.382684 0.923879 0.000000
vn -0.382684 0.923879 0.000000
vn 0.382684 0.923880 0.000000
vn 0.382684 0.923880 0.000000
vn 0.382683 0.923880 0.000000
vn 0.382683 0.923880 0.000000
vn 0.923880 0.382683 0.000000
vn 0.923880 0.382683 0.000000
vn 0.923880 0.382683 0.000000
vn 0.923880 0.382683 0.000000
vn 0.923880 -0.382683 0.000000
vn 0.923880 -0.382683 0.000000
vn 0.923880 -0.382683 0.000000
vn 0.923880 -0.382683 0.000000
vn 0.000000 0.000000 1.000000
vn 0.000000 0.000000 1.000000
vn 0.000000 0.000000 1.000000
vn 0.000000 0.000000 1.000000
vn 0.000000 0.000000 1.000000
vn 0.000000 0.000000 1.000000
vn 0.000000 0.000000 1.000000
vn 0.000000 0.000000 1.000000
vn 0.000000 0.000000 1.000000
vn 0.000000 0.000000 1.000000
vn 0.000000 0.000000 1.000000
vn 0.000000 0.000000 1.000000
vn 0.000000 0.000000 1.000000
vn 0.000000 0.000000 1.000000
vn 0.000000 0.000000 1.000000
vn 0.000000 0.000000 1.000000
vn 0.000000 0.000000 1.000000
vn 0.000000 0.000000 1.000000
vn 0.000000 0.000000 1.000000
vn 0.000000 0.000000 1.000000
vn 0.000000 0.000000 1.000000
vn 0.000000 0.000000 1.000000
vn 0.000000 0.000000 1.000000
vn 0.000000 0.000000 1.000000
vn 0.000000 0.000000 -1.000000
vn 0.000000 0.000000 -1.000000
vn 0.000000 0.000000 -1.000000
vn 0.000000 0.000000 -1.000000
vn 0.000000 0.000000 -1.000000
vn 0.000000 0.000000 -1.000000
vn 0.000000 -0.000001 -1.000000
vn 0.000000 -0.000001 -1.000000
vn 0.000000 -0.000001 -1.000000
vn 0.000000 0.000000 -1.000000
vn 0.000000 0.000000 -1.000000
vn 0.000000 0.000000 -1.000000
vn 0.000000 -0.000001 -1.000000
vn 0.000000 -0.000001 -1.000000
vn 0.000000 -0.000001 -1.000000
vn 0.000000 -0.000001 -1.000000
vn 0.000000 -0.000001 -1.000000
vn 0.000000 -0.000001 -1.000000
vn 0.000000 0.000000 -1.000000
vn 0.000000 0.000000 -1.000000
vn 0.000000 0.000000 -1.000000
vn 0.000000 -0.000001 -1.000000
vn 0.000000 -0.000001 -1.000000
vn 0.000000 -0.000001 -1.000000
vn 0.923880 -0.382683 0.000000
vn 0.923880 -0.382683 0.000000
vn 0.923880 -0.382683 0.000000
vn 0.923880 -0.382683 0.000000
vn 0.923880 0.382683 0.000000
vn 0.923880 0.382683 0.000000
vn 0.923880 0.382683 0.000000
vn 0.923880 0.382683 0.000000
vn 0.382683 0.923880 0.000000
vn 0.382683 0.923880 0.000000
vn 0.382683 0.923880 0.000000
vn 0.382683 0.923880 0.000000
vn -0.382684 0.923879 0.000000
vn -0.382684 0.923879 0.000000
vn -0.382684 0.923879 0.000000
vn -0.382684 0.923879 0.000000
vn -0.923879 0.382684 0.000000
vn -0.923879 0.382684 0.000000
vn -0.923879 0.382684 0.000000
vn -0.923879 0.382684 0.000000
vn -0.923880 -0.382683 0.000000
vn -0.923880 -0.382683 0.000000
vn -0.923880 -0.382683 0.000000
vn -0.923880 -0.382683 0.000000
vn -0.923880 -0.382683 0.000000
vn -0.923880 -0.382683 0.000000
vn -0.923880 -0.382683 0.000000
vn -0.923880 -0.382683 0.000000
vn -0.923879 0.382684 0.000000
vn -0.923879 0.382684 0.000000
vn -0.923879 0.382684 0.000000
vn -0.923879 0.382684 0.000000
vn -0.382684 0.923879 0.000000
vn -0.382684 0.923879 0.000000
vn -0.382684 0.923879 0.000000
vn -0.382684 0.923879 0.000000
vn 0.382684 0.923879 0.000000
vn 0.382684 0.923879 0.000000
vn 0.382684 0.923879 0.000000
vn 0.382684 0.923879 0.000000
vn 0.923879 0.382684 0.000000
vn 0.923879 0.382684 0.000000
vn 0.923879 0.382684 0.000000
vn 0.923879 0.382684 0.000000
vn 0.923880 -0.382683 0.000000
vn 0.923880 -0.382683 0.000000
vn 0.923880 -0.382683 0.000000
vn 0.923880 -0.382683 0.000000
vn 0.000000 0.000000 1.000000
vn 0.000000 0.000000 1.000000
vn 0.000000 0.000000 1.000000
vn 0.000000 0.000000 1.000000
vn 0.000000 0.000000 1.000000
vn 0.000000 0.000000 1.000000
vn 0.000000 0.000000 1.000000
vn 0.000000 0.000000 1.000000
vn 0.000000 0.000000 1.000000
vn 0.000000 0.000000 1.000000
vn 0.000000 0.000000 1.000000
vn 0.000000 0.000000 1.000000
vn 0.000000 0.000000 1.000000
vn 0.000000 0.000000 1.000000
vn 0.000000 0.000000 1.000000
vn 0.000000 0.000000 1.000000
vn 0.000000 0.000000 1.000000
vn 0.000000 0.000000 1.000000
vn 0.000000 0.000000 1.000000
vn 0.000000 0.000000 1.000000
vn 0.000000 0.000000 1.000000
vn 0.000000 0.000000 1.000000
vn 0.000000 0.000000 1.000000
vn 0.000000 0.000000 1.000000
vn 0.000000 0.000000 -1.000000
vn 0.000000 0.000000 -1.000000
vn 0.000000 0.000000 -1.000000
vn 0.000000 0.000000 -1.000000
vn 0.000000 0.000000 -1.000000
vn 0.000000 0.000000 -1.000000
vn 0.000000 0.000000 -1.000000
vn 0.000000 0.000000 -1.000000
vn 0.000000 0.000000 -1.000000
vn 0.000000 0.000000 -1.000000
vn 0.000000 0.000000 -1.000000
vn 0.000000 0.000000 -1.000000
vn 0.000000 0.000000 -1.000000
vn 0.000000 0.000000 -1.000000
vn 0.000000 0.000000 -1.000000
vn 0.000000 0.000000 -1.000000
vn 0.000000 0.000000 -1.000000
vn 0.000000 0.000000 -1.000000
vn 0.000000 0.000000 -1.000000
vn 0.000000 0.000000 -1.000000
vn 0.000000 0.000000 -1.000000
vn 0.000000 0.000000 -1.000000
vn 0.000000 0.000000 -1.000000
vn 0.000000 0.000000 -1.000000
vn 0.923880 -0.382683 0.000000
vn 0.923880 -0.382683 0.000000
vn 0.923880 -0.382683 0.000000
vn 0.923880 -0.382683 0.000000
vn 0.923879 0.382684 0.000000
vn 0.923879 0.382684 0.000000
vn 0.923879 0.382684 0.000000
vn 0.923879 0.382684 0.000000
vn 0.382684 0.923879 0.000000
vn 0.382684 0.923879 0.000000
vn 0.382684 0.923879 0.000000
vn 0.382684 0.923879 0.000000
vn -0.382684 0.923879 0.000000
vn -0.382684 0.923879 0.000000
vn -0.382684 0.923879 0.000000
vn -0.382684 0.923879 0.000000
vn -0.923879 0.382684 0.000000
vn -0.923879 0.382684 0.000000
vn -0.923879 0.382684 0.000000
vn -0.923879 0.382684 0.000000
vn -0.923880 -0.382683 0.000000
vn -0.923880 -0.382683 0.000000
vn -0.923880 -0.382683 0.000000
vn -0.923880 -0.382683 0.000000
vn 0.382683 -0.923880 -0.000000
vn 0.382683 -0.923880 -0.000000
vn 0.382683 -0.923880 -0.000000
vn 0.382683 -0.923880 -0.000000
vn 0.382683 -0.923880 0.000000
vn 0.382683 -0.923880 0.000000
vn 0.382683 -0.923880 0.000000
vn 0.382683 -0.923880 0.000000
vn -0.382683 -0.923880 -0.000000
vn -0.382683 -0.923880 -0.000000
vn -0.382683 -0.923880 -0.000000
vn -0.382683 -0.923880 -0.000000
vn -0.382683 -0.923880 0.000000
vn -0.382683 -0.923880 0.000000
vn -0.382683 -0.923880 0.000000
vn -0.382683 -0.923880 0.000000
vn 0.382683 -0.923880 0.000000
vn 0.382683 -0.923880 0.000000
vn 0.382683 -0.923880 0.000000
vn 0.382683 -0.923880 0.000000
vn -0.382683 -0.923880 0.000000
vn -0.382683 -0.923880 0.000000
vn -0.382683 -0.923880 0.000000
vn -0.382683 -0.923880 0.000000
vn -0.382683 -0.923880 0.000000
vn -0.382683 -0.923880 0.000000
vn -0.382683 -0.923880 0.000000
vn -0.382683 -0.923880 0.000000
vn 0.382683 -0.923880 0.000000
vn 0.382683 -0.923880 0.000000
vn 0.382683 -0.923880 0.000000
vn 0.382683 -0.923880 0.000000
s off
g Rail_LP
usemtl initialShadingGroup
f 3/1/1 4/2/2 24/3/3 25/4/4
f 4/2/5 5/5/6 23/6/7 24/3/8
f 5/37/9 6/38/10 22/39/11 23/40/12
f 6/38/13 7/41/14 21/42/15 22/39/16
f 7/10/17 8/11/18 20/12/19 21/13/20
f 8/11/21 1/14/22 19/15/23 20/12/24
f 2/73/25 1/74/26 17/75/27
f 3/77/28 2/73/29 17/75/30
f 4/79/31 3/77/32 17/75/33
f 5/81/34 4/79/35 17/75/36
f 6/80/37 5/81/38 17/75/39
f 7/78/40 6/80/41 17/75/42
f 8/76/43 7/78/44 17/75/45
f 1/74/46 8/76/47 17/75/48
f 9/82/49 10/83/50 18/84/51
f 10/83/52 11/85/53 18/84/54
f 11/85/55 12/87/56 18/84/57
f 12/87/58 13/89/59 18/84/60
f 13/89/61 14/90/62 18/84/63
f 14/90/64 15/88/65 18/84/66
f 15/88/67 16/86/68 18/84/69
f 16/86/70 9/82/71 18/84/72
f 20/12/73 19/15/74 9/18/75 16/16/76
f 21/13/77 20/12/78 16/16/79 15/17/80
f 22/39/81 21/42/82 15/45/83 14/43/84
f 23/40/85 22/39/86 14/43/87 13/44/88
f 24/3/89 23/6/90 13/9/91 12/7/92
f 25/4/93 24/3/94 12/7/95 11/8/96
f 28/19/97 29/20/98 49/21/99 50/22/100
f 29/20/101 30/23/102 48/24/103 49/21/104
f 30/46/105 31/47/106 47/48/107 48/49/108
f 31/47/109 32/50/110 46/51/111 47/48/112
f 32/28/113 33/29/114 45/30/115 46/31/116
f 33/29/117 26/32/118 44/33/119 45/30/120
f 27/91/121 26/92/122 42/93/123
f 28/95/124 27/91/125 42/93/126
f 29/97/127 28/95/128 42/93/129
f 30/99/130 29/97/131 42/93/132
f 31/98/133 30/99/134 42/93/135
f 32/96/136 31/98/137 42/93/138
f 33/94/139 32/96/140 42/93/141
f 26/92/142 33/94/143 42/93/144
f 34/100/145 35/101/146 43/102/147
f 35/101/148 36/103/149 43/102/150
f 36/103/151 37/105/152 43/102/153
f 37/105/154 38/107/155 43/102/156
f 38/107/157 39/108/158 43/102/159
f 39/108/160 40/106/161 43/102/162
f 40/106/163 41/104/164 43/102/165
f 41/104/166 34/100/167 43/102/168
f 45/30/169 44/33/170 34/36/171 41/34/172
f 46/31/173 45/30/174 41/34/175 40/35/176
f 47/48/177 46/51/178 40/54/179 39/52/180
f 48/49/181 47/48/182 39/52/183 38/53/184
f 49/21/185 48/24/186 38/27/187 37/25/188
f 50/22/189 49/21/190 37/25/191 36/26/192
f 19/55/193 51/56/194 10/57/195 9/58/196
f 1/59/197 2/60/198 51/56/199 19/55/200
f 2/60/201 3/63/202 25/61/203 51/56/204
f 51/56/205 25/61/206 11/62/207 10/57/208
f 26/64/209 27/65/210 52/66/211 44/67/212
f 27/65/213 28/68/214 50/69/215 52/66/216
f 52/66/217 50/69/218 36/72/219 35/70/220
f 44/67/221 52/66/222 35/70/223 34/71/224
