# This file uses centimeters as units for non-parametric coordinates.

mtllib Wall_LP.mtl
g default
v -1.000000 0.000000 0.000000
v -0.500000 0.000000 0.000000
v 0.000000 0.000000 0.000000
v -1.000000 1.000000 0.000000
v -0.500000 1.000000 0.000000
v 0.000000 0.600000 0.000000
v -1.000000 1.000000 -3.000000
v -0.500000 1.000000 -3.000000
v 0.000000 0.600000 -3.000000
v -1.000000 0.000000 -3.000000
v -0.500000 0.000000 -3.000000
v 0.000000 0.000000 -3.000000
vt 0.985361 0.489732
vt 0.472432 0.489732
vt 0.747917 0.489732
vt 0.827065 0.489732
vt 0.551581 0.489732
vt 0.646558 0.489732
vt 0.135389 0.345423
vt 0.135389 0.470374
vt 0.646558 0.014844
vt 0.472432 0.014844
vt 0.393285 0.014844
vt 0.551580 0.014844
vt 0.235383 0.220482
vt 0.385301 0.220482
vt 0.827065 0.014844
vt 0.385301 0.470374
vt 0.385301 0.345423
vt 0.747917 0.014844
vt 0.256185 0.006505
vt 0.256185 0.156448
vt 0.006286 0.006505
vt 0.006286 0.256400
vt 0.131234 0.256400
vt 0.131235 0.006505
vt 0.985361 0.014844
vt 0.393284 0.489732
vn 0.000000 0.000000 1.000000
vn 0.000000 0.000000 1.000000
vn 0.000000 0.000000 1.000000
vn 0.000000 0.000000 1.000000
vn 0.000000 0.000000 1.000000
vn 0.000000 0.000000 1.000000
vn 0.000000 0.000000 1.000000
vn 0.000000 0.000000 1.000000
vn 0.000000 1.000000 0.000000
vn 0.000000 1.000000 0.000000
vn 0.000000 1.000000 0.000000
vn 0.000000 1.000000 0.000000
vn 0.624695 0.780869 0.000000
vn 0.624695 0.780869 0.000000
vn 0.624695 0.780869 0.000000
vn 0.624695 0.780869 0.000000
vn 0.000000 0.000000 -1.000000
vn 0.000000 0.000000 -1.000000
vn 0.000000 0.000000 -1.000000
vn 0.000000 0.000000 -1.000000
vn 0.000000 0.000000 -1.000000
vn 0.000000 0.000000 -1.000000
vn 0.000000 0.000000 -1.000000
vn 0.000000 0.000000 -1.000000
vn 0.000000 -1.000000 0.000000
vn 0.000000 -1.000000 0.000000
vn 0.000000 -1.000000 0.000000
vn 0.000000 -1.000000 0.000000
vn 0.000000 -1.000000 0.000000
vn 0.000000 -1.000000 0.000000
vn 0.000000 -1.000000 0.000000
vn 0.000000 -1.000000 0.000000
vn 1.000000 0.000000 0.000000
vn 1.000000 0.000000 0.000000
vn 1.000000 0.000000 0.000000
vn 1.000000 0.000000 0.000000
vn -1.000000 0.000000 0.000000
vn -1.000000 0.000000 0.000000
vn -1.000000 0.000000 0.000000
vn -1.000000 0.000000 0.000000
s off
g Wall_LP
usemtl initialShadingGroup
f 1/21/1 2/24/2 5/23/3 4/22/4
f 2/24/5 3/19/6 6/20/7 5/23/8
f 4/4/9 5/3/10 8/18/11 7/15/12
f 5/3/13 6/6/14 9/9/15 8/18/16
f 7/8/17 8/7/18 11/17/19 10/16/20
f 8/7/21 9/13/22 12/14/23 11/17/24
f 10/11/25 11/10/26 2/2/27 1/26/28
f 11/10/29 12/12/30 3/5/31 2/2/32
f 3/5/33 12/12/34 9/9/35 6/6/36
f 10/25/37 1/1/38 4/4/39 7/15/40
