# This file uses centimeters as units for non-parametric coordinates.

mtllib InsideCorner_LP.mtl
g default
v -1.000000 0.000000 -1.000000
v -0.500000 0.000000 -0.500000
v 0.000000 0.000000 -0.000000
v -1.000000 1.000000 -1.000000
v -0.500000 1.000000 -0.500000
v 0.000000 0.600000 -0.000000
v -1.000000 1.000000 -3.000000
v -0.500000 1.000000 -3.000000
v 0.000000 0.600000 -3.000000
v -1.000000 0.000000 -3.000000
v -0.500000 0.000000 -3.000000
v 0.000000 0.000000 -3.000000
v -3.000000 0.000000 -1.000000
v -3.000000 0.000000 -0.500000
v -3.000000 0.000000 -0.000000
v -3.000000 1.000000 -1.000000
v -3.000000 1.000000 -0.500000
v -3.000000 0.600000 -0.000000
vt 0.020259 0.488298
vt 0.020259 0.019941
vt 0.113931 0.019941
vt 0.113931 0.488298
vt 0.176378 0.410238
vt 0.176378 0.019941
vt 0.249773 0.804381
vt 0.249773 0.492143
vt 0.405892 0.492143
vt 0.405892 0.804381
vt 0.183786 0.808226
vt 0.261846 0.808226
vt 0.261846 0.964345
vt 0.183786 0.964345
vt 0.339905 0.808226
vt 0.339905 0.901898
vt 0.496024 0.019941
vt 0.574084 0.019941
vt 0.574084 0.410238
vt 0.496024 0.332179
vt 0.652143 0.019941
vt 0.652143 0.488298
vt 0.183786 0.410238
vt 0.183786 0.332179
vt 0.183786 0.488298
vt 0.901681 0.960500
vt 0.823622 0.960500
vt 0.823622 0.648262
vt 0.901681 0.570202
vt 0.511384 0.648262
vt 0.511384 0.570202
vt 0.511384 0.492143
vt 0.979741 0.492143
vt 0.020259 0.964345
vt 0.020259 0.886286
vt 0.176378 0.886286
vt 0.176378 0.964345
vt 0.082707 0.808226
vt 0.176378 0.808226
vt 0.411802 0.960500
vt 0.411802 0.492143
vt 0.505474 0.492143
vt 0.505474 0.960500
vt 0.243862 0.492143
vt 0.243862 0.804381
vt 0.087744 0.804381
vt 0.087744 0.492143
vn 0.624695 0.780869 0.000000
vn 0.624695 0.780869 0.000000
vn 0.624695 0.780869 0.000000
vn 0.624695 0.780869 0.000000
vn 0.000000 0.000000 -1.000000
vn 0.000000 0.000000 -1.000000
vn 0.000000 0.000000 -1.000000
vn 0.000000 0.000000 -1.000000
vn 0.000000 0.000000 -1.000000
vn 0.000000 0.000000 -1.000000
vn 0.000000 0.000000 -1.000000
vn 0.000000 0.000000 -1.000000
vn 0.000000 -1.000000 0.000000
vn 0.000000 -1.000000 0.000000
vn 0.000000 -1.000000 0.000000
vn 0.000000 -1.000000 0.000000
vn 0.000000 -1.000000 0.000000
vn 0.000000 -1.000000 0.000000
vn 0.000000 -1.000000 0.000000
vn 0.000000 -1.000000 0.000000
vn 1.000000 0.000000 0.000000
vn 1.000000 0.000000 0.000000
vn 1.000000 0.000000 0.000000
vn 1.000000 0.000000 0.000000
vn -1.000000 -0.000000 0.000000
vn -1.000000 -0.000000 0.000000
vn -1.000000 -0.000000 0.000000
vn -1.000000 -0.000000 0.000000
vn -1.000000 0.000000 0.000000
vn -1.000000 0.000000 0.000000
vn -1.000000 0.000000 0.000000
vn -1.000000 0.000000 0.000000
vn -1.000000 0.000000 0.000000
vn -1.000000 0.000000 0.000000
vn -1.000000 0.000000 0.000000
vn -1.000000 0.000000 0.000000
vn 0.000000 0.780869 0.624695
vn 0.000000 0.780869 0.624695
vn 0.000000 0.780869 0.624695
vn 0.000000 0.780869 0.624695
vn 0.000000 -1.000000 0.000000
vn 0.000000 -1.000000 0.000000
vn 0.000000 -1.000000 0.000000
vn 0.000000 -1.000000 0.000000
vn 0.000000 -1.000000 0.000000
vn 0.000000 -1.000000 0.000000
vn 0.000000 -1.000000 0.000000
vn 0.000000 -1.000000 0.000000
vn 0.000000 0.000000 1.000000
vn 0.000000 0.000000 1.000000
vn 0.000000 0.000000 1.000000
vn 0.000000 0.000000 1.000000
vn 0.000000 -0.000000 -1.000000
vn 0.000000 -0.000000 -1.000000
vn 0.000000 -0.000000 -1.000000
vn 0.000000 -0.000000 -1.000000
vn 0.000000 1.000000 0.000000
vn 0.000000 1.000000 0.000000
vn 0.000000 1.000000 0.000000
vn 0.000000 1.000000 0.000000
vn 0.000000 1.000000 0.000000
vn 0.000000 1.000000 0.000000
s off
g InsideCorner_LP
usemtl initialShadingGroup
f 5/5/1 6/4/2 9/3/3 8/6/4
f 7/34/5 8/35/6 11/36/7 10/37/8
f 8/35/9 9/38/10 12/39/11 11/36/12
f 10/17/13 11/18/14 2/19/15 1/20/16
f 11/18/17 12/21/18 3/22/19 2/19/20
f 3/1/21 12/2/22 9/3/23 6/4/24
f 10/7/25 1/8/26 4/9/27 7/10/28
f 13/11/29 14/12/30 17/13/31 16/14/32
f 14/12/33 15/15/34 18/16/35 17/13/36
f 17/31/37 18/32/38 6/33/39 5/29/40
f 1/20/41 2/19/42 14/23/43 13/24/44
f 2/19/45 3/22/46 15/25/47 14/23/48
f 15/40/49 3/41/50 6/42/51 18/43/52
f 1/44/53 13/45/54 16/46/55 4/47/56
s 1
f 8/26/57 7/27/58 4/28/59 5/29/60
f 5/29/60 4/28/59 16/30/61 17/31/62
