# This file uses centimeters as units for non-parametric coordinates.

mtllib InsideBend_LP.mtl
g default
v 1.544214 0.000000 -1.505073
v 1.227201 0.000000 -1.895167
v 0.916766 0.000000 -2.291838
v 1.544214 1.000000 -1.505073
v 1.227201 1.000000 -1.895167
v 0.920692 0.600000 -2.295765
v 3.000000 1.000000 -2.000000
v 3.000000 1.000000 -2.500000
v 3.000000 0.600000 -3.000000
v 3.000000 0.000000 -2.000000
v 3.000000 0.000000 -2.500000
v 3.000000 0.000000 -3.000000
v 1.000000 0.000000 0.000000
v 0.500000 0.000000 0.000000
v 0.000000 0.000000 0.000000
v 1.000000 1.000000 0.000000
v 0.500000 1.000000 0.000000
v 0.000000 0.600000 0.000000
v 1.145279 1.000000 -0.856419
v 1.145279 0.000000 -0.856419
v 0.705635 0.000000 -1.070057
v 0.252699 0.000000 -1.270401
v 0.252699 0.600000 -1.270401
v 0.705635 1.000000 -1.070057
v 2.170249 1.000000 -1.881388
v 2.170249 0.000000 -1.881388
v 2.003949 0.000000 -2.368371
v 1.840250 0.000000 -2.857953
v 1.840404 0.600000 -2.858107
v 2.003949 1.000000 -2.368371
v 2.562806 0.000000 -1.970788
v 2.562806 1.000000 -1.970788
v 2.472420 1.000000 -2.468340
v 2.383280 0.600000 -2.967137
v 2.383280 0.000000 -2.967137
v 2.472420 0.000000 -2.468340
v 1.829708 1.000000 -1.727531
v 1.829708 0.000000 -1.727531
v 1.585629 0.000000 -2.176972
v 1.350825 0.000000 -2.635688
v 1.357287 0.600000 -2.642150
v 1.585629 1.000000 -2.176972
v 1.315292 0.000000 -1.213116
v 1.315292 1.000000 -1.213116
v 0.932508 1.000000 -1.523851
v 0.547362 0.600000 -1.832226
v 0.545621 0.000000 -1.830484
v 0.932508 0.000000 -1.523851
v 1.038302 1.000000 -0.446283
v 1.038302 0.000000 -0.446283
v 0.554180 0.000000 -0.550100
v 0.063787 0.000000 -0.647645
v 0.063787 0.600000 -0.647645
v 0.554180 1.000000 -0.550100
v 2.776525 0.000000 -1.992727
v 2.776525 1.000000 -1.992727
v 2.729366 1.000000 -2.492169
v 2.682557 0.600000 -2.991961
v 2.682557 0.000000 -2.991961
v 2.729366 0.000000 -2.492169
v 2.360353 1.000000 -1.933845
v 2.360353 0.000000 -1.933845
v 2.230450 0.000000 -2.427555
v 2.102799 0.000000 -2.923516
v 2.102799 0.600000 -2.923516
v 2.230450 1.000000 -2.427555
v 1.993218 0.000000 -1.812817
v 1.993218 1.000000 -1.812817
v 1.788205 1.000000 -2.284462
v 1.594498 0.600000 -2.767415
v 1.587568 0.000000 -2.760484
v 1.788205 0.000000 -2.284462
v 1.679982 1.000000 -1.625044
v 1.679982 0.000000 -1.625044
v 1.398581 0.000000 -2.047345
v 1.129090 0.000000 -2.481556
v 1.134166 0.600000 -2.486632
v 1.398581 1.000000 -2.047345
v 1.422574 0.000000 -1.367636
v 1.422574 1.000000 -1.367636
v 1.071712 1.000000 -1.720476
v 0.724816 0.600000 -2.077282
v 0.722014 0.000000 -2.074479
v 1.071712 0.000000 -1.720476
v 1.222707 1.000000 -1.042306
v 1.222707 0.000000 -1.042306
v 0.810202 0.000000 -1.306460
v 0.388704 0.000000 -1.561621
v 0.389478 0.600000 -1.562395
v 0.810202 1.000000 -1.306460
v 1.083587 0.000000 -0.657079
v 1.083587 1.000000 -0.657079
v 0.619840 1.000000 -0.816945
v 0.142946 0.600000 -0.963663
v 0.142946 0.000000 -0.963663
v 0.619840 0.000000 -0.816945
v 1.010142 1.000000 -0.226345
v 1.010142 0.000000 -0.226345
v 0.513578 0.000000 -0.276381
v 0.015985 0.000000 -0.325389
v 0.015985 0.600000 -0.325389
v 0.513578 1.000000 -0.276381
vt 0.985361 0.987905
vt 0.472432 0.987905
vt 0.747917 0.987905
vt 0.827065 0.987905
vt 0.551581 0.987905
vt 0.646558 0.987905
vt 0.135389 0.843596
vt 0.135389 0.968546
vt 0.646558 0.513017
vt 0.472432 0.513017
vt 0.393285 0.513017
vt 0.551580 0.513017
vt 0.235383 0.718655
vt 0.385301 0.718655
vt 0.827065 0.513017
vt 0.385301 0.968547
vt 0.385301 0.843596
vt 0.747917 0.513017
vt 0.985361 0.513017
vt 0.393285 0.987905
vt 0.006286 0.006505
vt 0.131235 0.006505
vt 0.131234 0.256400
vt 0.006286 0.256400
vt 0.256185 0.006505
vt 0.256185 0.156448
vt 0.827065 0.489732
vt 0.747917 0.489732
vt 0.747917 0.014844
vt 0.827065 0.014844
vt 0.646558 0.489732
vt 0.646558 0.014844
vt 0.393285 0.014844
vt 0.472432 0.014844
vt 0.472432 0.489732
vt 0.393284 0.489732
vt 0.551580 0.014844
vt 0.551581 0.489732
vt 0.985361 0.014844
vt 0.985361 0.489732
vt 0.827065 0.252288
vt 0.985361 0.252288
vt 0.393285 0.252288
vt 0.472432 0.252288
vt 0.551580 0.252288
vt 0.646558 0.252288
vt 0.747917 0.252288
vt 0.827065 0.750461
vt 0.985361 0.750461
vt 0.393285 0.750461
vt 0.472432 0.750461
vt 0.551580 0.750461
vt 0.646558 0.750461
vt 0.747917 0.750461
vt 0.985361 0.631739
vt 0.393285 0.631739
vt 0.827065 0.631739
vt 0.747917 0.631739
vt 0.646558 0.631739
vt 0.551580 0.631739
vt 0.472432 0.631739
vt 0.827065 0.869183
vt 0.985361 0.869183
vt 0.393284 0.869183
vt 0.472432 0.869183
vt 0.551581 0.869183
vt 0.646558 0.869183
vt 0.747917 0.869183
vt 0.985361 0.133566
vt 0.393285 0.133566
vt 0.827065 0.133566
vt 0.747917 0.133566
vt 0.646558 0.133566
vt 0.551580 0.133566
vt 0.472432 0.133566
vt 0.827065 0.371010
vt 0.985361 0.371010
vt 0.393284 0.371010
vt 0.472432 0.371010
vt 0.551581 0.371010
vt 0.646558 0.371010
vt 0.747917 0.371010
vt 0.985361 0.572378
vt 0.393285 0.572378
vt 0.827065 0.572378
vt 0.747917 0.572378
vt 0.646558 0.572378
vt 0.551580 0.572378
vt 0.472432 0.572378
vt 0.827065 0.691100
vt 0.985361 0.691100
vt 0.393285 0.691100
vt 0.472432 0.691100
vt 0.551580 0.691100
vt 0.646558 0.691100
vt 0.747917 0.691100
vt 0.985361 0.809822
vt 0.393284 0.809822
vt 0.827065 0.809822
vt 0.747917 0.809822
vt 0.646558 0.809822
vt 0.551581 0.809822
vt 0.472432 0.809822
vt 0.827065 0.928544
vt 0.985361 0.928544
vt 0.393285 0.928544
vt 0.472432 0.928544
vt 0.551581 0.928544
vt 0.646558 0.928544
vt 0.747917 0.928544
vt 0.985361 0.074205
vt 0.393285 0.074205
vt 0.827065 0.074205
vt 0.747917 0.074205
vt 0.646558 0.074205
vt 0.551580 0.074205
vt 0.472432 0.074205
vt 0.827065 0.192927
vt 0.985361 0.192927
vt 0.393285 0.192927
vt 0.472432 0.192927
vt 0.551580 0.192927
vt 0.646558 0.192927
vt 0.747917 0.192927
vt 0.985361 0.311649
vt 0.393284 0.311649
vt 0.827065 0.311649
vt 0.747917 0.311649
vt 0.646558 0.311649
vt 0.551581 0.311649
vt 0.472432 0.311649
vt 0.827065 0.430371
vt 0.985361 0.430371
vt 0.393284 0.430371
vt 0.472432 0.430371
vt 0.551581 0.430371
vt 0.646558 0.430371
vt 0.747917 0.430371
vn 0.000000 1.000000 0.000000
vn 0.000000 1.000000 0.000000
vn 0.000000 1.000000 0.000000
vn 0.000000 1.000000 0.000000
vn -0.413936 0.782945 -0.464385
vn -0.413936 0.782945 -0.464385
vn -0.413936 0.782945 -0.464385
vn -0.413936 0.782945 -0.464385
vn 1.000000 0.000000 0.000000
vn 1.000000 0.000000 0.000000
vn 1.000000 0.000000 0.000000
vn 1.000000 0.000000 0.000000
vn 1.000000 0.000000 0.000000
vn 1.000000 0.000000 0.000000
vn 1.000000 0.000000 0.000000
vn 1.000000 0.000000 0.000000
vn 0.000000 -1.000000 0.000000
vn 0.000000 -1.000000 0.000000
vn 0.000000 -1.000000 0.000000
vn 0.000000 -1.000000 0.000000
vn 0.000000 -1.000000 0.000000
vn 0.000000 -1.000000 0.000000
vn 0.000000 -1.000000 0.000000
vn 0.000000 -1.000000 0.000000
vn -0.666412 -0.000594 -0.745583
vn -0.666412 -0.000594 -0.745583
vn -0.666412 -0.000594 -0.745583
vn -0.666412 -0.000594 -0.745583
vn 0.662167 0.000000 0.749357
vn 0.662167 0.000000 0.749357
vn 0.662167 0.000000 0.749357
vn 0.662167 0.000000 0.749357
vn -0.000000 0.000000 1.000000
vn -0.000000 0.000000 1.000000
vn -0.000000 0.000000 1.000000
vn -0.000000 0.000000 1.000000
vn -0.000000 0.000000 1.000000
vn -0.000000 0.000000 1.000000
vn -0.000000 0.000000 1.000000
vn -0.000000 0.000000 1.000000
vn 0.000000 1.000000 0.000000
vn 0.000000 1.000000 0.000000
vn 0.000000 1.000000 0.000000
vn 0.000000 1.000000 0.000000
vn -0.624401 0.780501 -0.030675
vn -0.624401 0.780501 -0.030675
vn -0.624401 0.780501 -0.030675
vn -0.624401 0.780501 -0.030675
vn 0.000000 -1.000000 0.000000
vn 0.000000 -1.000000 0.000000
vn 0.000000 -1.000000 0.000000
vn 0.000000 -1.000000 0.000000
vn 0.000000 -1.000000 0.000000
vn 0.000000 -1.000000 0.000000
vn 0.000000 -1.000000 0.000000
vn 0.000000 -1.000000 0.000000
vn -0.998796 0.000000 -0.049068
vn -0.998796 0.000000 -0.049068
vn -0.998796 0.000000 -0.049068
vn -0.998796 0.000000 -0.049068
vn 0.998998 0.000000 0.044765
vn 0.998998 0.000000 0.044765
vn 0.998998 0.000000 0.044765
vn 0.998998 0.000000 0.044765
vn 0.748831 0.000000 0.662761
vn 0.748831 0.000000 0.662761
vn 0.748831 0.000000 0.662761
vn 0.748831 0.000000 0.662761
vn 0.000000 -1.000000 0.000000
vn 0.000000 -1.000000 0.000000
vn 0.000000 -1.000000 0.000000
vn 0.000000 -1.000000 0.000000
vn 0.000000 -1.000000 0.000000
vn 0.000000 -1.000000 0.000000
vn 0.000000 -1.000000 0.000000
vn 0.000000 -1.000000 0.000000
vn -0.744677 0.000433 -0.667424
vn -0.744677 0.000433 -0.667424
vn -0.744677 0.000433 -0.667424
vn -0.744677 0.000433 -0.667424
vn -0.468105 0.778382 -0.418328
vn -0.468105 0.778382 -0.418328
vn -0.468105 0.778382 -0.418328
vn -0.468105 0.778382 -0.418328
vn 0.000000 1.000000 0.000000
vn 0.000000 1.000000 0.000000
vn 0.000000 1.000000 0.000000
vn 0.000000 1.000000 0.000000
vn 0.032529 0.000000 0.999471
vn 0.032529 0.000000 0.999471
vn 0.032529 0.000000 0.999471
vn 0.032529 0.000000 0.999471
vn 0.000000 -1.000000 0.000000
vn 0.000000 -1.000000 0.000000
vn 0.000000 -1.000000 0.000000
vn 0.000000 -1.000000 0.000000
vn 0.000000 -1.000000 0.000000
vn 0.000000 -1.000000 0.000000
vn 0.000000 -1.000000 0.000000
vn 0.000000 -1.000000 0.000000
vn -0.025314 0.000000 -0.999680
vn -0.025314 0.000000 -0.999680
vn -0.025314 0.000000 -0.999680
vn -0.025314 0.000000 -0.999680
vn -0.016845 0.781080 -0.624204
vn -0.016845 0.781080 -0.624204
vn -0.016845 0.781080 -0.624204
vn -0.016845 0.781080 -0.624204
vn 0.000000 1.000000 0.000000
vn 0.000000 1.000000 0.000000
vn 0.000000 1.000000 0.000000
vn 0.000000 1.000000 0.000000
vn 0.265996 0.000000 0.963974
vn 0.265996 0.000000 0.963974
vn 0.265996 0.000000 0.963974
vn 0.265996 0.000000 0.963974
vn 0.000000 1.000000 0.000000
vn 0.000000 1.000000 0.000000
vn 0.000000 1.000000 0.000000
vn 0.000000 1.000000 0.000000
vn -0.151752 0.788920 -0.595463
vn -0.151752 0.788920 -0.595463
vn -0.151752 0.788920 -0.595463
vn -0.151752 0.788920 -0.595463
vn -0.242077 -0.000093 -0.970257
vn -0.242077 -0.000093 -0.970257
vn -0.242077 -0.000093 -0.970257
vn -0.242077 -0.000093 -0.970257
vn 0.000000 -1.000000 0.000000
vn 0.000000 -1.000000 0.000000
vn 0.000000 -1.000000 0.000000
vn 0.000000 -1.000000 0.000000
vn 0.000000 -1.000000 0.000000
vn 0.000000 -1.000000 0.000000
vn 0.000000 -1.000000 0.000000
vn 0.000000 -1.000000 0.000000
vn 0.361195 0.000000 0.932491
vn 0.361195 0.000000 0.932491
vn 0.361195 0.000000 0.932491
vn 0.361195 0.000000 0.932491
vn 0.000000 -1.000000 0.000000
vn 0.000000 -1.000000 0.000000
vn 0.000000 -1.000000 0.000000
vn 0.000000 -1.000000 0.000000
vn 0.000000 -1.000000 0.000000
vn 0.000000 -1.000000 0.000000
vn 0.000000 -1.000000 0.000000
vn 0.000000 -1.000000 0.000000
vn -0.353079 -0.003439 -0.935587
vn -0.353079 -0.003439 -0.935587
vn -0.353079 -0.003439 -0.935587
vn -0.353079 -0.003439 -0.935587
vn -0.216187 0.791536 -0.571607
vn -0.216187 0.791536 -0.571607
vn -0.216187 0.791536 -0.571607
vn -0.216187 0.791536 -0.571607
vn 0.000000 1.000000 0.000000
vn 0.000000 1.000000 0.000000
vn 0.000000 1.000000 0.000000
vn 0.000000 1.000000 0.000000
vn 0.923120 0.000000 0.384511
vn 0.923120 0.000000 0.384511
vn 0.923120 0.000000 0.384511
vn 0.923120 0.000000 0.384511
vn 0.000000 1.000000 0.000000
vn 0.000000 1.000000 0.000000
vn 0.000000 1.000000 0.000000
vn 0.000000 1.000000 0.000000
vn -0.573718 0.776002 -0.262047
vn -0.573718 0.776002 -0.262047
vn -0.573718 0.776002 -0.262047
vn -0.573718 0.776002 -0.262047
vn -0.905814 0.000311 -0.423675
vn -0.905814 0.000311 -0.423675
vn -0.905814 0.000311 -0.423675
vn -0.905814 0.000311 -0.423675
vn 0.000000 -1.000000 0.000000
vn 0.000000 -1.000000 0.000000
vn 0.000000 -1.000000 0.000000
vn 0.000000 -1.000000 0.000000
vn 0.000000 -1.000000 0.000000
vn 0.000000 -1.000000 0.000000
vn 0.000000 -1.000000 0.000000
vn 0.000000 -1.000000 0.000000
vn 0.955297 0.000000 0.295648
vn 0.955297 0.000000 0.295648
vn 0.955297 0.000000 0.295648
vn 0.955297 0.000000 0.295648
vn 0.000000 -1.000000 0.000000
vn 0.000000 -1.000000 0.000000
vn 0.000000 -1.000000 0.000000
vn 0.000000 -1.000000 0.000000
vn 0.000000 -1.000000 0.000000
vn 0.000000 -1.000000 0.000000
vn 0.000000 -1.000000 0.000000
vn 0.000000 -1.000000 0.000000
vn -0.941544 0.000000 -0.336890
vn -0.941544 0.000000 -0.336890
vn -0.941544 0.000000 -0.336890
vn -0.941544 0.000000 -0.336890
vn -0.592544 0.778496 -0.206968
vn -0.592544 0.778496 -0.206968
vn -0.592544 0.778496 -0.206968
vn -0.592544 0.778496 -0.206968
vn 0.000000 1.000000 0.000000
vn 0.000000 1.000000 0.000000
vn 0.000000 1.000000 0.000000
vn 0.000000 1.000000 0.000000
vn 0.102114 0.000000 0.994773
vn 0.102114 0.000000 0.994773
vn 0.102114 0.000000 0.994773
vn 0.102114 0.000000 0.994773
vn 0.000000 1.000000 0.000000
vn 0.000000 1.000000 0.000000
vn 0.000000 1.000000 0.000000
vn 0.000000 1.000000 0.000000
vn -0.054215 0.782879 -0.619807
vn -0.054215 0.782879 -0.619807
vn -0.054215 0.782879 -0.619807
vn -0.054215 0.782879 -0.619807
vn -0.082664 0.000000 -0.996578
vn -0.082664 0.000000 -0.996578
vn -0.082664 0.000000 -0.996578
vn -0.082664 0.000000 -0.996578
vn 0.000000 -1.000000 0.000000
vn 0.000000 -1.000000 0.000000
vn 0.000000 -1.000000 0.000000
vn 0.000000 -1.000000 0.000000
vn 0.000000 -1.000000 0.000000
vn 0.000000 -1.000000 0.000000
vn 0.000000 -1.000000 0.000000
vn 0.000000 -1.000000 0.000000
vn 0.179513 0.000000 0.983756
vn 0.179513 0.000000 0.983756
vn 0.179513 0.000000 0.983756
vn 0.179513 0.000000 0.983756
vn 0.000000 -1.000000 0.000000
vn 0.000000 -1.000000 0.000000
vn 0.000000 -1.000000 0.000000
vn 0.000000 -1.000000 0.000000
vn 0.000000 -1.000000 0.000000
vn 0.000000 -1.000000 0.000000
vn 0.000000 -1.000000 0.000000
vn 0.000000 -1.000000 0.000000
vn -0.153675 0.000000 -0.988122
vn -0.153675 0.000000 -0.988122
vn -0.153675 0.000000 -0.988122
vn -0.153675 0.000000 -0.988122
vn -0.098631 0.785852 -0.610499
vn -0.098631 0.785852 -0.610499
vn -0.098631 0.785852 -0.610499
vn -0.098631 0.785852 -0.610499
vn 0.000000 1.000000 0.000000
vn 0.000000 1.000000 0.000000
vn 0.000000 1.000000 0.000000
vn 0.000000 1.000000 0.000000
vn 0.462462 0.000000 0.886639
vn 0.462462 0.000000 0.886639
vn 0.462462 0.000000 0.886639
vn 0.462462 0.000000 0.886639
vn 0.000000 1.000000 0.000000
vn 0.000000 1.000000 0.000000
vn 0.000000 1.000000 0.000000
vn 0.000000 1.000000 0.000000
vn -0.285995 0.791323 -0.540384
vn -0.285995 0.791323 -0.540384
vn -0.285995 0.791323 -0.540384
vn -0.285995 0.791323 -0.540384
vn -0.466634 -0.004663 -0.884438
vn -0.466634 -0.004663 -0.884438
vn -0.466634 -0.004663 -0.884438
vn -0.466634 -0.004663 -0.884438
vn 0.000000 -1.000000 0.000000
vn 0.000000 -1.000000 0.000000
vn 0.000000 -1.000000 0.000000
vn 0.000000 -1.000000 0.000000
vn 0.000000 -1.000000 0.000000
vn 0.000000 -1.000000 0.000000
vn 0.000000 -1.000000 0.000000
vn 0.000000 -1.000000 0.000000
vn 0.564847 0.000000 0.825195
vn 0.564847 0.000000 0.825195
vn 0.564847 0.000000 0.825195
vn 0.564847 0.000000 0.825195
vn 0.000000 -1.000000 0.000000
vn 0.000000 -1.000000 0.000000
vn 0.000000 -1.000000 0.000000
vn 0.000000 -1.000000 0.000000
vn 0.000000 -1.000000 0.000000
vn 0.000000 -1.000000 0.000000
vn 0.000000 -1.000000 0.000000
vn 0.000000 -1.000000 0.000000
vn -0.571294 -0.002399 -0.820742
vn -0.571294 -0.002399 -0.820742
vn -0.571294 -0.002399 -0.820742
vn -0.571294 -0.002399 -0.820742
vn -0.351435 0.787998 -0.505522
vn -0.351435 0.787998 -0.505522
vn -0.351435 0.787998 -0.505522
vn -0.351435 0.787998 -0.505522
vn 0.000000 1.000000 0.000000
vn 0.000000 1.000000 0.000000
vn 0.000000 1.000000 0.000000
vn 0.000000 1.000000 0.000000
vn 0.821430 0.000000 0.570310
vn 0.821430 0.000000 0.570310
vn 0.821430 0.000000 0.570310
vn 0.821430 0.000000 0.570310
vn 0.000000 1.000000 0.000000
vn 0.000000 1.000000 0.000000
vn 0.000000 1.000000 0.000000
vn 0.000000 1.000000 0.000000
vn -0.513149 0.775455 -0.367897
vn -0.513149 0.775455 -0.367897
vn -0.513149 0.775455 -0.367897
vn -0.513149 0.775455 -0.367897
vn -0.810173 0.000848 -0.586191
vn -0.810173 0.000848 -0.586191
vn -0.810173 0.000848 -0.586191
vn -0.810173 0.000848 -0.586191
vn 0.000000 -1.000000 0.000000
vn 0.000000 -1.000000 0.000000
vn 0.000000 -1.000000 0.000000
vn 0.000000 -1.000000 0.000000
vn 0.000000 -1.000000 0.000000
vn 0.000000 -1.000000 0.000000
vn 0.000000 -1.000000 0.000000
vn 0.000000 -1.000000 0.000000
vn 0.879156 0.000000 0.476534
vn 0.879156 0.000000 0.476534
vn 0.879156 0.000000 0.476534
vn 0.879156 0.000000 0.476534
vn 0.000000 -1.000000 0.000000
vn 0.000000 -1.000000 0.000000
vn 0.000000 -1.000000 0.000000
vn 0.000000 -1.000000 0.000000
vn 0.000000 -1.000000 0.000000
vn 0.000000 -1.000000 0.000000
vn 0.000000 -1.000000 0.000000
vn 0.000000 -1.000000 0.000000
vn -0.863386 0.000752 -0.504543
vn -0.863386 0.000752 -0.504543
vn -0.863386 0.000752 -0.504543
vn -0.863386 0.000752 -0.504543
vn -0.548224 0.774633 -0.315270
vn -0.548224 0.774633 -0.315270
vn -0.548224 0.774633 -0.315270
vn -0.548224 0.774633 -0.315270
vn 0.000000 1.000000 0.000000
vn 0.000000 1.000000 0.000000
vn 0.000000 1.000000 0.000000
vn 0.000000 1.000000 0.000000
vn 0.977693 0.000000 0.210038
vn 0.977693 0.000000 0.210038
vn 0.977693 0.000000 0.210038
vn 0.977693 0.000000 0.210038
vn 0.000000 1.000000 0.000000
vn 0.000000 1.000000 0.000000
vn 0.000000 1.000000 0.000000
vn 0.000000 1.000000 0.000000
vn -0.607134 0.780150 -0.150849
vn -0.607134 0.780149 -0.150849
vn -0.607134 0.780149 -0.150849
vn -0.607134 0.780149 -0.150849
vn -0.970031 0.000000 -0.242980
vn -0.970031 0.000000 -0.242980
vn -0.970031 0.000000 -0.242980
vn -0.970031 0.000000 -0.242980
vn 0.000000 -1.000000 0.000000
vn 0.000000 -1.000000 0.000000
vn 0.000000 -1.000000 0.000000
vn 0.000000 -1.000000 0.000000
vn 0.000000 -1.000000 0.000000
vn 0.000000 -1.000000 0.000000
vn 0.000000 -1.000000 0.000000
vn 0.000000 -1.000000 0.000000
vn 0.991903 0.000000 0.126995
vn 0.991903 0.000000 0.126995
vn 0.991903 0.000000 0.126995
vn 0.991903 0.000000 0.126995
vn 0.000000 -1.000000 0.000000
vn 0.000000 -1.000000 0.000000
vn 0.000000 -1.000000 0.000000
vn 0.000000 -1.000000 0.000000
vn 0.000000 -1.000000 0.000000
vn 0.000000 -1.000000 0.000000
vn 0.000000 -1.000000 0.000000
vn 0.000000 -1.000000 0.000000
vn -0.989177 0.000000 -0.146730
vn -0.989177 0.000000 -0.146730
vn -0.989177 0.000000 -0.146730
vn -0.989177 0.000000 -0.146730
vn -0.618388 0.780501 -0.091729
vn -0.618388 0.780501 -0.091729
vn -0.618388 0.780501 -0.091729
vn -0.618388 0.780501 -0.091729
vn 0.000000 1.000000 0.000000
vn 0.000000 1.000000 0.000000
vn 0.000000 1.000000 0.000000
vn 0.000000 1.000000 0.000000
s off
g InsideBend_LP
usemtl initialShadingGroup
f 4/4/1 73/104/2 78/110/3 5/3/4
f 5/3/5 78/110/6 77/109/7 6/6/8
f 7/8/9 10/16/10 11/17/11 8/7/12
f 8/7/13 11/17/14 12/14/15 9/13/16
f 74/106/17 1/20/18 2/2/19 75/107/20
f 75/107/21 2/2/22 3/5/23 76/108/24
f 3/5/25 6/6/26 77/109/27 76/108/28
f 73/104/29 4/4/30 1/1/31 74/105/32
f 13/21/33 16/24/34 17/23/35 14/22/36
f 14/22/37 17/23/38 18/26/39 15/25/40
f 16/27/41 97/132/42 102/138/43 17/28/44
f 17/28/45 102/138/46 101/137/47 18/31/48
f 98/134/49 13/36/50 14/35/51 99/135/52
f 99/135/53 14/35/54 15/38/55 100/136/56
f 15/38/57 18/31/58 101/137/59 100/136/60
f 97/132/61 16/27/62 13/40/63 98/133/64
f 1/39/65 4/30/66 80/113/67 79/111/68
f 1/33/69 79/112/70 84/117/71 2/34/72
f 2/34/73 84/117/74 83/116/75 3/37/76
f 82/115/77 6/32/78 3/37/79 83/116/80
f 81/114/81 5/29/82 6/32/83 82/115/84
f 80/113/85 4/30/86 5/29/87 81/114/88
f 10/19/89 7/15/90 56/85/91 55/83/92
f 10/11/93 55/84/94 60/89/95 11/10/96
f 11/10/97 60/89/98 59/88/99 12/12/100
f 58/87/101 9/9/102 12/12/103 59/88/104
f 57/86/105 8/18/106 9/9/107 58/87/108
f 56/85/109 7/15/110 8/18/111 57/86/112
f 61/90/113 25/48/114 26/49/115 62/91/116
f 25/48/117 61/90/118 66/96/119 30/54/120
f 30/54/121 66/96/122 65/95/123 29/53/124
f 29/53/125 65/95/126 64/94/127 28/52/128
f 63/93/129 27/51/130 28/52/131 64/94/132
f 62/92/133 26/50/134 27/51/135 63/93/136
f 25/48/137 68/99/138 67/97/139 26/49/140
f 26/50/141 67/98/142 72/103/143 27/51/144
f 27/51/145 72/103/146 71/102/147 28/52/148
f 70/101/149 29/53/150 28/52/151 71/102/152
f 69/100/153 30/54/154 29/53/155 70/101/156
f 68/99/157 25/48/158 30/54/159 69/100/160
f 85/118/161 19/41/162 20/42/163 86/119/164
f 19/41/165 85/118/166 90/124/167 24/47/168
f 24/47/169 90/124/170 89/123/171 23/46/172
f 23/46/173 89/123/174 88/122/175 22/45/176
f 87/121/177 21/44/178 22/45/179 88/122/180
f 86/120/181 20/43/182 21/44/183 87/121/184
f 19/41/185 92/127/186 91/125/187 20/42/188
f 20/43/189 91/126/190 96/131/191 21/44/192
f 21/44/193 96/131/194 95/130/195 22/45/196
f 94/129/197 23/46/198 22/45/199 95/130/200
f 93/128/201 24/47/202 23/46/203 94/129/204
f 92/127/205 19/41/206 24/47/207 93/128/208
f 56/85/209 32/57/210 31/55/211 55/83/212
f 32/57/213 56/85/214 57/86/215 33/58/216
f 33/58/217 57/86/218 58/87/219 34/59/220
f 34/59/221 58/87/222 59/88/223 35/60/224
f 60/89/225 36/61/226 35/60/227 59/88/228
f 55/84/229 31/56/230 36/61/231 60/89/232
f 32/57/233 61/90/234 62/91/235 31/55/236
f 31/56/237 62/92/238 63/93/239 36/61/240
f 36/61/241 63/93/242 64/94/243 35/60/244
f 65/95/245 34/59/246 35/60/247 64/94/248
f 66/96/249 33/58/250 34/59/251 65/95/252
f 61/90/253 32/57/254 33/58/255 66/96/256
f 68/99/257 37/62/258 38/63/259 67/97/260
f 37/62/261 68/99/262 69/100/263 42/68/264
f 42/68/265 69/100/266 70/101/267 41/67/268
f 41/67/269 70/101/270 71/102/271 40/66/272
f 72/103/273 39/65/274 40/66/275 71/102/276
f 67/98/277 38/64/278 39/65/279 72/103/280
f 37/62/281 73/104/282 74/105/283 38/63/284
f 38/64/285 74/106/286 75/107/287 39/65/288
f 39/65/289 75/107/290 76/108/291 40/66/292
f 77/109/293 41/67/294 40/66/295 76/108/296
f 78/110/297 42/68/298 41/67/299 77/109/300
f 73/104/301 37/62/302 42/68/303 78/110/304
f 80/113/305 44/71/306 43/69/307 79/111/308
f 44/71/309 80/113/310 81/114/311 45/72/312
f 45/72/313 81/114/314 82/115/315 46/73/316
f 46/73/317 82/115/318 83/116/319 47/74/320
f 84/117/321 48/75/322 47/74/323 83/116/324
f 79/112/325 43/70/326 48/75/327 84/117/328
f 44/71/329 85/118/330 86/119/331 43/69/332
f 43/70/333 86/120/334 87/121/335 48/75/336
f 48/75/337 87/121/338 88/122/339 47/74/340
f 89/123/341 46/73/342 47/74/343 88/122/344
f 90/124/345 45/72/346 46/73/347 89/123/348
f 85/118/349 44/71/350 45/72/351 90/124/352
f 92/127/353 49/76/354 50/77/355 91/125/356
f 49/76/357 92/127/358 93/128/359 54/82/360
f 54/82/361 93/128/362 94/129/363 53/81/364
f 53/81/365 94/129/366 95/130/367 52/80/368
f 96/131/369 51/79/370 52/80/371 95/130/372
f 91/126/373 50/78/374 51/79/375 96/131/376
f 49/76/377 97/132/378 98/133/379 50/77/380
f 50/78/381 98/134/382 99/135/383 51/79/384
f 51/79/385 99/135/386 100/136/387 52/80/388
f 101/137/389 53/81/390 52/80/391 100/136/392
f 102/138/393 54/82/394 53/81/395 101/137/396
f 97/132/397 49/76/398 54/82/399 102/138/400
